<mxfile host="app.diagrams.net" modified="2024-05-22T09:50:27.164Z" agent="Mozilla/5.0 (Macintosh; Intel Mac OS X 10_15_7) AppleWebKit/537.36 (KHTML, like Gecko) Chrome/125.0.0.0 Safari/537.36" version="24.2.0" etag="OZtTomUYZn9L18lqWTnu" type="github">
  <diagram name="Page-1" id="YsdwNc9JcTHvFrx8qLvz">
    <mxGraphModel>
      <root>
        <mxCell id="0" />
        <mxCell id="1" parent="0" />
      </root>
    </mxGraphModel>
  </diagram>
</mxfile>
